<svg width="128" height="60" viewBox="0 0 128 60" fill="none" xmlns="http://www.w3.org/2000/svg">
<path d="M41.5873 13H29.5433C27.8879 13 26.5326 14.3553 26.5326 16.0107V25.044C26.5326 26.6994 27.8879 28.0547 29.5433 28.0547H38.5766C40.2514 28.0547 41.5873 26.6814 41.5873 25.044V19.0227H32.5553V22.0334H38.5766V25.044H29.5433V16.0107H41.5873V13Z" fill="#FF00FF"/>
<path d="M49.0739 13C47.4185 13 46.0632 14.3553 46.0632 16.0107V28.0547H49.0739V22.0334H58.1073V28.0547H61.1179V16.0107C61.1179 14.3553 59.7626 13 58.1073 13H49.0739ZM49.0739 16.0107H58.1073V19.0227H49.0739V16.0107Z" fill="#FF00FF"/>
<path d="M68.6045 13C66.9492 13 65.5939 14.3553 65.5939 16.0107V28.0547H68.6045V16.0107H71.6166V28.0547H74.6272V16.0107H77.6379V28.0547H80.6486V16.0107C80.6486 14.3553 79.2933 13 77.6379 13H68.6045Z" fill="#FF00FF"/>
<path d="M100.179 13H88.1352C86.4798 13 85.1245 14.3553 85.1245 16.0107V25.044C85.1245 26.6994 86.4798 28.0547 88.1352 28.0547H100.179V25.044H88.1352V22.0334H100.179V19.0227H88.1352V16.0107H100.179V13Z" fill="#FF00FF"/>
<path d="M43.8794 13.5292H31.8354C30.18 13.5292 28.8247 14.8845 28.8247 16.5398V25.5732C28.8247 27.2286 30.18 28.5839 31.8354 28.5839H40.8687C42.5435 28.5839 43.8794 27.2106 43.8794 25.5732V19.5519H34.8474V22.5625H40.8687V25.5732H31.8354V16.5398H43.8794V13.5292Z" fill="#00FFFF"/>
<path d="M51.366 13.5292C49.7106 13.5292 48.3553 14.8845 48.3553 16.5398V28.5839H51.366V22.5625H60.3994V28.5839H63.41V16.5398C63.41 14.8845 62.0548 13.5292 60.3994 13.5292H51.366ZM51.366 16.5398H60.3994V19.5519H51.366V16.5398Z" fill="#00FFFF"/>
<path d="M70.8968 13.5292C69.2414 13.5292 67.8861 14.8845 67.8861 16.5398V28.5839H70.8968V16.5398H73.9088V28.5839H76.9195V16.5398H79.9301V28.5839H82.9408V16.5398C82.9408 14.8845 81.5855 13.5292 79.9301 13.5292H70.8968Z" fill="#00FFFF"/>
<path d="M102.471 13.5292H90.4273C88.7719 13.5292 87.4166 14.8845 87.4166 16.5398V25.5732C87.4166 27.2286 88.7719 28.5839 90.4273 28.5839H102.471V25.5732H90.4273V22.5625H102.471V19.5519H90.4273V16.5398H102.471V13.5292Z" fill="#00FFFF"/>
<path d="M42.7335 13.2646H30.6895C29.0341 13.2646 27.6788 14.6199 27.6788 16.2752V25.3086C27.6788 26.964 29.0341 28.3193 30.6895 28.3193H39.7229C41.3976 28.3193 42.7335 26.946 42.7335 25.3086V19.2873H33.7015V22.298H39.7229V25.3086H30.6895V16.2752H42.7335V13.2646Z" fill="white"/>
<path d="M50.22 13.2646C48.5646 13.2646 47.2094 14.6199 47.2094 16.2752V28.3193H50.22V22.298H59.2534V28.3193H62.264V16.2752C62.264 14.6199 60.9088 13.2646 59.2534 13.2646H50.22ZM50.22 16.2752H59.2534V19.2873H50.22V16.2752Z" fill="white"/>
<path d="M69.7507 13.2646C68.0953 13.2646 66.74 14.6199 66.74 16.2752V28.3193H69.7507V16.2752H72.7627V28.3193H75.7734V16.2752H78.784V28.3193H81.7947V16.2752C81.7947 14.6199 80.4394 13.2646 78.784 13.2646H69.7507Z" fill="white"/>
<path d="M101.325 13.2646H89.2813C87.6259 13.2646 86.2706 14.6199 86.2706 16.2752V25.3086C86.2706 26.964 87.6259 28.3193 89.2813 28.3193H101.325V25.3086H89.2813V22.298H101.325V19.2873H89.2813V16.2752H101.325V13.2646Z" fill="white"/>
<path d="M10.0107 31.5867C8.35528 31.5867 7 32.942 7 34.5974V46.6414H10.0107V34.5974H13.0227V46.6414H16.0334V34.5974H19.044V46.6414H22.0547V34.5974C22.0547 32.942 20.6994 31.5867 19.044 31.5867H10.0107Z" fill="#FF00FF"/>
<path d="M29.5412 31.5867C27.8858 31.5867 26.5305 32.942 26.5305 34.5974V46.6414H29.5412V40.6201H38.5746V46.6414H41.5852V34.5974C41.5852 32.942 40.2299 31.5867 38.5746 31.5867H29.5412ZM29.5412 34.5974H38.5746V37.6094H29.5412V34.5974Z" fill="#FF00FF"/>
<path d="M61.116 31.5867H57.5023C57.0889 31.5867 56.7127 31.7375 56.4112 32.0389L50.8407 37.6094H49.0719V31.5867H46.0613V46.6414H49.0719V40.6201H50.8407L56.4112 46.1892C56.7127 46.4907 57.0889 46.6414 57.5023 46.6414H61.116V43.6307H58.1053L53.5886 39.1141L58.1053 34.5974H61.116V31.5867Z" fill="#FF00FF"/>
<path d="M68.6025 31.5867C66.9471 31.5867 65.5918 32.942 65.5918 34.5974V46.6414H68.6025V40.6201H77.6358V46.6414H80.6465V34.5974C80.6465 32.942 79.2912 31.5867 77.6358 31.5867H68.6025ZM68.6025 34.5974H77.6358V37.6094H68.6025V34.5974Z" fill="#FF00FF"/>
<path d="M100.177 31.5867H88.1332C86.4778 31.5867 85.1226 32.942 85.1226 34.5974V37.6094C85.1226 39.2648 86.4778 40.6201 88.1332 40.6201H97.1666V43.6307H85.1226V46.6414H97.1666C98.822 46.6414 100.177 45.2861 100.177 43.6307V40.6201C100.177 38.9633 98.822 37.6094 97.1666 37.6094H88.1332V34.5974H100.177V31.5867Z" fill="#FF00FF"/>
<path d="M119.708 31.5867H107.664C106.008 31.5867 104.653 32.942 104.653 34.5974V43.6307C104.653 45.2861 106.008 46.6414 107.664 46.6414H119.708V43.6307H107.664V40.6201H119.708V37.6094H107.664V34.5974H119.708V31.5867Z" fill="#FF00FF"/>
<path d="M12.3028 32.1159C10.6474 32.1159 9.29211 33.4712 9.29211 35.1266V47.1706H12.3028V35.1266H15.3148V47.1706H18.3255V35.1266H21.3361V47.1706H24.3468V35.1266C24.3468 33.4712 22.9915 32.1159 21.3361 32.1159H12.3028Z" fill="#00FFFF"/>
<path d="M31.8335 32.1159C30.1782 32.1159 28.8229 33.4712 28.8229 35.1266V47.1706H31.8335V41.1493H40.8669V47.1706H43.8776V35.1266C43.8776 33.4712 42.5223 32.1159 40.8669 32.1159H31.8335ZM31.8335 35.1266H40.8669V38.1386H31.8335V35.1266Z" fill="#00FFFF"/>
<path d="M63.4081 32.1159H59.7945C59.381 32.1159 59.0048 32.2666 58.7033 32.5681L53.1328 38.1386H51.3641V32.1159H48.3534V47.1706H51.3641V41.1493H53.1328L58.7033 46.7184C59.0048 47.0199 59.381 47.1706 59.7945 47.1706H63.4081V44.1599H60.3974L55.8807 39.6433L60.3974 35.1266H63.4081V32.1159Z" fill="#00FFFF"/>
<path d="M70.8947 32.1159C69.2393 32.1159 67.884 33.4712 67.884 35.1266V47.1706H70.8947V41.1493H79.9281V47.1706H82.9387V35.1266C82.9387 33.4712 81.5834 32.1159 79.9281 32.1159H70.8947ZM70.8947 35.1266H79.9281V38.1386H70.8947V35.1266Z" fill="#00FFFF"/>
<path d="M102.469 32.1159H90.4252C88.7698 32.1159 87.4146 33.4712 87.4146 35.1266V38.1386C87.4146 39.794 88.7698 41.1493 90.4252 41.1493H99.4586V44.1599H87.4146V47.1706H99.4586C101.114 47.1706 102.469 45.8153 102.469 44.1599V41.1493C102.469 39.4925 101.114 38.1386 99.4586 38.1386H90.4252V35.1266H102.469V32.1159Z" fill="#00FFFF"/>
<path d="M122 32.1159H109.956C108.301 32.1159 106.945 33.4712 106.945 35.1266V44.1599C106.945 45.8153 108.301 47.1706 109.956 47.1706H122V44.1599H109.956V41.1493H122V38.1386H109.956V35.1266H122V32.1159Z" fill="#00FFFF"/>
<path d="M11.1568 31.8513C9.5014 31.8513 8.14612 33.2066 8.14612 34.862V46.906H11.1568V34.862H14.1688V46.906H17.1795V34.862H20.1902V46.906H23.2008V34.862C23.2008 33.2066 21.8455 31.8513 20.1902 31.8513H11.1568Z" fill="white"/>
<path d="M30.6874 31.8513C29.032 31.8513 27.6768 33.2066 27.6768 34.862V46.906H30.6874V40.8847H39.7208V46.906H42.7315V34.862C42.7315 33.2066 41.3762 31.8513 39.7208 31.8513H30.6874ZM30.6874 34.862H39.7208V37.874H30.6874V34.862Z" fill="white"/>
<path d="M62.262 31.8513H58.6483C58.2348 31.8513 57.8587 32.002 57.5572 32.3035L51.9867 37.874H50.2179V31.8513H47.2073V46.906H50.2179V40.8847H51.9867L57.5572 46.4538C57.8587 46.7553 58.2348 46.906 58.6483 46.906H62.262V43.8953H59.2513L54.7346 39.3787L59.2513 34.862H62.262V31.8513Z" fill="white"/>
<path d="M69.7486 31.8513C68.0932 31.8513 66.7379 33.2066 66.7379 34.862V46.906H69.7486V40.8847H78.7819V46.906H81.7926V34.862C81.7926 33.2066 80.4373 31.8513 78.7819 31.8513H69.7486ZM69.7486 34.862H78.7819V37.874H69.7486V34.862Z" fill="white"/>
<path d="M101.323 31.8513H89.2792C87.6238 31.8513 86.2686 33.2066 86.2686 34.862V37.874C86.2686 39.5294 87.6238 40.8847 89.2792 40.8847H98.3126V43.8953H86.2686V46.906H98.3126C99.968 46.906 101.323 45.5507 101.323 43.8953V40.8847C101.323 39.2279 99.968 37.874 98.3126 37.874H89.2792V34.862H101.323V31.8513Z" fill="white"/>
<path d="M120.854 31.8513H108.81C107.154 31.8513 105.799 33.2066 105.799 34.862V43.8953C105.799 45.5507 107.154 46.906 108.81 46.906H120.854V43.8953H108.81V40.8847H120.854V37.874H108.81V34.862H120.854V31.8513Z" fill="white"/>
</svg>
