<svg width="161" height="161" viewBox="0 0 161 161" fill="none" xmlns="http://www.w3.org/2000/svg">
<circle cx="80.5" cy="80.5" r="80.5" fill="#62569F"/>
<path d="M80.6105 80.7183C87.9629 80.7183 93.9217 74.7595 93.9217 67.4071C93.9217 60.0548 87.9629 54.0959 80.6105 54.0959C73.2582 54.0959 67.2994 60.0548 67.2994 67.4071C67.2994 74.7595 73.2582 80.7183 80.6105 80.7183ZM89.9284 84.0461H88.1917C85.883 85.1068 83.3144 85.71 80.6105 85.71C77.9067 85.71 75.3485 85.1068 73.0294 84.0461H71.2927C63.5764 84.0461 57.316 90.3065 57.316 98.0229V102.349C57.316 105.105 59.5518 107.341 62.3077 107.341H98.9134C101.669 107.341 103.905 105.105 103.905 102.349V98.0229C103.905 90.3065 97.6447 84.0461 89.9284 84.0461Z" fill="white"/>
</svg>
